<?xml version="1.0" standalone="no"?> <!DOCTYPE svg PUBLIC "-//W3C//DTD SVG 1.0//EN" "http://www.w3.org/TR/2001/REC-SVG-20010904/DTD/svg10.dtd" > <svg xmlns="http://www.w3.org/2000/svg" width="100%" height="100%">
<defs >
<font id="fantastica" horiz-adv-x="505" ><font-face
    font-family="Fantastica"
    units-per-em="1000"
    panose-1="2 0 6 3 0 0 0 0 0 0"
    ascent="1215"
    descent="-646"
    alphabetic="0" />
<missing-glyph horiz-adv-x="364" d="M33 0V666H298V0H33ZM66 33H265V633H66V33Z" />
<glyph unicode=" " glyph-name="space" horiz-adv-x="304" />
<glyph unicode="," glyph-name="comma" horiz-adv-x="84" d="M41 -49Q36 -49 34 24T31 137Q31 159 34 174T43 190T51 175T55 137Q55 107 50 30T41 -49Z" />
<glyph unicode="." glyph-name="period" horiz-adv-x="84" d="M41 107Q41 107 42 107Q47 107 50 92T54 54T51 16T42 0T34 15T30 54Q30 104 41 107Z" />
<glyph unicode="A" glyph-name="A" horiz-adv-x="734" d="M264 490Q278 490 291 488Q335 482 377 460Q413 441 446 411Q477 383 507 344Q527 318 554 278Q619 181 669 91Q686 60 697 38Q706 19 705 19T692 35Q689 39 660 86Q597 187 539 268Q511 308 491 332Q461
369 432 395Q400 423 367 440Q327 460 288 465T210 459Q170 448 138 423Q113 404 94 378Q65 337 57 289Q50 249 58 208Q66 168 87 134Q108 99 142 73Q173 48 211 35Q236 27 263 24Q288 21 313 24Q341 27 366 35Q391 43 412 56Q436 70 457 90Q474 107 489 127Q501
145 511 166Q518 181 524 197Q526 204 530 217Q532 224 532 224Q533 224 533 217Q532 208 529 196Q526 179 519 163Q511 141 498 121Q484 99 467 80Q446 58 420 42Q398 28 372 19Q345 9 315 5Q288 2 261 4Q232 7 204 16Q163 29 128 55Q92 84 67 122Q44 160 35 203Q26
248 33 293Q42 347 74 392Q95 421 123 442Q159 470 204 482Q234 490 264 490Z" />
<glyph unicode="B" glyph-name="B" horiz-adv-x="529" d="M263 4Q255 4 245 5Q218 8 194 16Q170 24 149 36Q124 51 103 73Q85 91 72 113Q60 133 52 154Q52 156 50 161Q47 9 42 9Q37 9 34 170T30 560T33 949T42 1110T50 949T54 560Q54 422 53 304Q55 311 57 319Q63
335 71 349Q80 366 91 381Q104 398 120 412Q136 426 156 437Q176 449 198 456Q222 464 248 467Q274 469 301 466Q352 459 396 430T466 356T499 259Q500 250 500 241Q501 197 487 158Q469 109 432 72T346 17Q321 8 295 5Q279 3 263 4ZM258 24Q275 24 292 26Q316
29 338 38Q382 54 415 88T464 166Q477 201 476 240Q476 249 475 257Q470 304 447 344T383 410T298 445Q274 448 249 446Q226 444 204 438Q183 432 164 421Q146 412 131 399Q116 387 103 372Q91 358 82 343Q67 319 59 291Q55 279 52 266Q51 217 51 187Q56 172 62
158Q70 138 83 120Q97 100 114 84Q134 64 158 51Q177 40 199 34Q222 27 247 25Q253 24 258 24Z" />
<glyph unicode="C" glyph-name="C" horiz-adv-x="545" d="M478 405T478 405T472 408Q471 409 467 413T460 420Q443 435 425 446Q398 463 368 473Q345 481 320 484Q292 488 265 485Q240 482 216 474Q190 465 167 451Q121 423 93 380T56 284Q51 247 57 211Q60 196
64 182Q79 133 115 93Q133 74 155 59Q176 44 199 34Q223 25 249 20Q273 16 298 17Q321 18 343 24Q364 29 384 37Q403 46 420 58Q436 68 450 81Q472 102 489 127Q499 141 508 161Q515 173 515 173Q517 172 513 159Q508 141 497 122Q482 95 459 71Q445 57 429 45Q411
31 391 21Q370 11 348 5Q324 -1 299 -3Q272 -4 245 -1Q217 3 191 14Q165 24 142 40Q118 56 98 77Q58 120 41 175Q36 191 33 207Q27 247 33 288Q37 317 48 343Q58 370 74 393Q106 440 156 470Q182 484 210 493Q236 501 263 503Q293 506 323 501Q349 496 373 487Q405
474 431 455Q450 440 464 424Q471 416 475 410Q478 405 478 405Z" />
<glyph unicode="D" glyph-name="D" horiz-adv-x="529" d="M482 1178T487 1178T496 983T500 555Q500 327 497 166T488 5Q483 5 480 156Q478 152 478 150Q470 128 458 108Q445 87 427 68Q406 46 381 31Q360 19 336 11Q311 3 285 0Q260 -2 235 0Q209 3 184 12Q135
30 98 67T43 153Q29 193 30 236Q30 245 31 254Q36 307 63 351T134 425T229 461Q255 465 282 462Q307 459 331 451Q354 444 374 432Q393 421 410 407Q426 393 439 376Q451 361 459 345Q467 330 472 315Q475 308 477 300Q476 416 476 555Q476 793 479 985ZM263 442Q247
442 232 440Q186 433 147 406T84 340T55 252Q54 244 54 235Q53 196 66 161Q81 118 114 84T192 33Q214 25 238 21Q260 18 283 20Q307 22 331 29Q353 36 372 46Q396 59 416 79Q433 95 447 115Q459 133 468 153Q474 167 479 182Q478 223 478 261Q475 273 471 286Q463
314 448 338Q439 353 427 367Q414 382 399 395Q384 407 366 417Q346 427 326 433Q303 440 280 442Q272 442 263 442Z" />
<glyph unicode="E" glyph-name="E" horiz-adv-x="544" d="M279 496Q326 496 368 480Q425 458 466 410Q485 384 497 355Q509 327 515 297Q315 297 202 300Q84 304 84 307T200 310Q315 310 505 305Q498 329 484 352Q469 376 449 395Q411 439 360 458T251 471T149
432Q146 430 145 429Q103 398 78 349Q52 298 53 243Q54 215 61 188Q69 162 82 137Q96 112 115 92Q134 71 156 57Q179 42 204 33Q228 25 254 22Q281 18 308 21Q334 24 357 32Q384 42 408 58Q428 71 446 89Q462 105 475 123Q484 137 492 152Q495 158 501 171Q505
178 505 178Q506 177 504 170Q502 161 498 150Q492 134 482 119Q470 98 454 81Q437 61 416 46Q391 28 363 18Q338 8 310 4Q281 0 252 3Q224 6 198 15Q170 24 145 39T100 77Q78 100 63 127Q48 153 40 181Q31 212 30 242Q29 303 57 360Q84 413 131 448Q133 450 135
451Q186 487 248 494Q263 496 279 496Z" />
<glyph unicode="F" glyph-name="F" horiz-adv-x="400" d="M365 1005Q365 1005 361 1001T346 989T323 969T295 941T263 905T231 860T200 807T174 745T153 676Q175 676 200 675Q271 674 320 670T370 661T320 653T200 651Q173 652 149 653Q140 605 140 556Q140 328
137 167T129 6T120 167T116 556Q116 606 125 654Q30 658 30 665T130 675Q144 738 173 794T233 888T294 952T343 992T365 1005Z" />
<glyph unicode="G" glyph-name="G" horiz-adv-x="652" d="M291 -645Q290 -645 311 -623Q344 -590 369 -561Q413 -510 449 -453Q497 -379 530 -297Q568 -204 586 -107Q606 6 598 117Q594 184 579 240Q562 306 532 358Q498 415 451 452Q443 458 434 464Q389 494
340 504Q306 511 271 508Q237 505 205 493Q172 480 144 458Q117 437 97 409Q77 380 65 347Q54 314 52 280Q50 245 59 210Q67 176 84 147Q102 116 128 91Q154 68 184 52Q216 36 252 29Q286 23 319 26Q357 30 392 45Q423 58 448 79Q472 97 491 121Q505 139 516 159Q521
169 528 184Q532 193 532 192Q533 192 531 183Q527 170 521 156Q512 135 498 116Q480 90 456 70Q429 48 398 33Q361 16 321 11Q286 7 250 13Q211 19 176 36Q143 52 115 77Q86 103 67 137Q48 169 38 205Q29 242 30 281Q32 318 44 354Q56 391 79 422Q100 453 130
476Q161 500 196 514Q231 528 269 532Q308 535 345 528Q399 517 447 484Q457 478 466 471Q517 430 552 370Q584 315 602 246Q617 187 621 119Q628 4 606 -111Q587 -210 547 -304Q511 -387 461 -461Q423 -518 377 -568Q346 -601 315 -627Q292 -647 291 -645Z" />
<glyph unicode="H" glyph-name="H" horiz-adv-x="535" d="M37 1099T42 1099T50 938T54 549Q54 402 53 284Q57 303 65 322Q75 346 91 367Q109 392 132 410Q156 429 183 440Q213 453 244 457Q274 461 305 457Q337 453 365 441Q373 437 381 433Q405 421 426 403Q446
386 461 365Q480 339 491 309Q502 280 504 250Q508 0 501 0T483 249Q480 276 470 301Q459 328 442 351Q413 389 370 412Q363 416 356 419Q330 430 302 434Q274 438 247 434Q219 431 192 420Q166 410 145 394Q123 378 105 356Q90 337 79 315Q69 295 63 274Q58 258
56 242Q55 237 53 221Q52 214 52 213Q48 -2 42 -2Q37 -2 34 159T30 548T33 937Z" />
<glyph unicode="I" glyph-name="I" horiz-adv-x="84" d="M41 770Q41 770 42 770Q47 770 50 754T54 716T51 679T42 663T34 678T30 716Q30 767 41 770ZM37 483T42 483T50 414T54 246T51 78T42 8T34 77T30 245T33 413Z" />
<glyph unicode="J" glyph-name="J" horiz-adv-x="84" d="M41 783Q41 783 42 783Q47 783 50 767T54 729T51 692T42 676T34 691T30 729Q30 780 41 783ZM37 496T42 496T50 335T54 -54Q54 -285 51 -459T42 -634T34 -460T30 -54Q30 174 33 335Z" />
<glyph unicode="K" glyph-name="K" horiz-adv-x="560" d="M37 1106T42 1106T50 945T54 556Q54 409 53 291Q57 311 65 329Q75 353 91 374Q109 399 132 418Q154 434 178 446Q235 491 320 551Q405 610 466 649T531 685T476 636T334 531Q283 495 236 464Q240 464 244
465Q274 469 305 465Q337 461 365 448Q373 445 381 441Q405 428 426 410Q446 393 461 372Q480 346 491 316Q502 288 504 258Q508 8 501 8T483 257Q480 283 470 309Q459 335 442 358Q413 397 370 419Q363 423 356 426Q330 437 302 441Q274 445 247 442Q219 439 192
428Q166 417 145 402Q123 386 105 364Q90 345 79 323Q69 303 63 282Q58 266 56 249Q55 245 53 228Q52 222 52 221Q48 6 42 6Q37 6 34 167T30 556T33 945Z" />
<glyph unicode="L" glyph-name="L" horiz-adv-x="84" d="M37 1215T42 1215T50 1037T54 608T51 178T42 0T34 178T30 607T33 1037Z" />
<glyph unicode="M" glyph-name="M" horiz-adv-x="975" d="M42 485Q51 485 53 318Q56 324 59 331Q69 356 84 377Q103 401 126 420Q150 438 177 450Q207 463 238 467Q268 471 299 467Q330 463 359 450Q368 447 375 443Q399 430 419 413Q439 395 455 374Q474 349
485 318Q489 307 492 294Q497 315 505 335Q516 359 531 380Q549 405 573 424Q596 442 623 454Q653 466 685 471Q715 475 745 470Q777 466 806 454Q814 450 822 446Q846 434 866 416Q886 399 901 378Q920 352 931 322Q942 293 945 264Q948 13 941 13T924 262Q920
289 910 314Q900 341 883 364Q854 403 811 425Q802 429 796 432Q771 443 742 447Q715 451 688 448Q659 444 632 434Q607 423 585 407Q563 391 545 369Q530 351 519 328Q509 309 503 287Q500 276 498 264Q498 261 498 260Q502 10 495 10T477 259Q474 286 464 311Q453
338 436 360Q407 399 364 422Q357 425 350 428Q324 439 295 443Q268 447 241 444Q212 441 185 430Q160 420 139 404Q116 388 99 366Q84 347 73 325Q63 305 57 284Q55 280 54 273Q54 260 54 247Q54 149 51 80T42 10T34 79T30 247T33 415T42 485Z" />
<glyph unicode="N" glyph-name="N" horiz-adv-x="529" d="M42 475Q51 475 53 308Q56 314 59 322Q69 346 84 367Q103 392 126 410Q150 429 177 440Q207 453 238 457Q268 461 299 457Q330 453 359 441Q368 437 375 433Q399 421 419 403Q439 386 455 365Q474 339
485 309Q495 281 498 250Q502 0 495 0T477 249Q474 276 464 301Q453 328 436 351Q407 389 364 412Q357 416 350 419Q324 430 295 434Q268 438 241 435Q212 431 185 420Q160 410 139 394Q116 378 99 356Q84 337 73 315Q63 295 57 274Q55 270 54 264Q54 250 54 238Q54
139 51 70T42 0T34 69T30 237T33 405T42 475Z" />
<glyph unicode="O" glyph-name="O" horiz-adv-x="548" d="M270 491Q284 491 297 490Q326 487 353 477Q406 459 446 418T505 324Q519 284 518 241Q518 227 516 214Q509 157 479 110T399 33T294 -2Q267 -4 240 0Q214 3 190 12Q167 21 146 33Q127 45 111 59T81 92Q69
108 60 125Q53 139 47 156Q42 169 39 183Q35 203 35 221Q34 234 36 234Q37 234 39 221Q43 200 48 185Q57 156 72 131Q81 115 93 101Q106 85 121 72T155 48Q175 37 196 30Q219 22 242 20Q268 17 292 19Q343 24 387 52T459 122Q486 165 492 217Q494 229 494 242Q495
281 482 316Q466 364 430 401T346 456Q321 465 295 469Q271 471 246 469Q219 467 194 459Q170 451 149 439Q124 424 103 403Q86 386 72 364Q59 345 50 324Q44 309 39 291Q37 286 33 270Q32 263 31 263T30 271Q30 281 32 293Q35 310 41 327Q48 350 61 371Q75 394
93 414Q114 437 140 453Q162 467 188 476Q215 486 244 489Q257 491 270 491Z" />
<glyph unicode="P" glyph-name="P" horiz-adv-x="529" d="M263 469Q279 469 295 468Q321 465 346 456Q394 438 431 401T487 315Q501 276 500 232Q500 223 499 214Q493 161 467 117T396 44T301 7Q274 4 248 6Q222 9 198 17Q176 24 156 36Q136 47 120 61Q104 75
91 92Q80 107 71 124Q63 138 57 154Q55 162 53 169Q54 51 54 -87Q54 -315 51 -476T42 -637T34 -476T30 -87T33 302T42 464Q47 464 50 312Q52 317 52 318Q60 340 72 360Q85 382 103 400Q124 422 149 437Q170 449 194 457Q219 465 245 468Q255 469 263 469ZM258 449Q253
449 247 448Q222 446 199 439Q177 433 158 422Q134 409 114 389Q97 373 83 353Q70 335 62 315Q56 301 51 286Q51 256 52 207Q55 194 59 182Q67 154 82 130Q91 115 103 101Q116 86 131 74T164 52Q183 41 204 35Q226 28 249 27Q274 25 298 28Q343 35 383 62T446 129T475
216Q476 224 476 233Q477 272 464 307Q449 351 416 385T338 435Q316 444 292 447Q275 449 258 449Z" />
<glyph unicode="Q" glyph-name="Q" horiz-adv-x="529" d="M260 473Q273 473 285 472Q311 469 336 461Q360 453 381 440Q406 425 427 404Q445 385 458 364Q470 344 478 322Q478 320 480 316Q483 467 488 467Q493 467 496 306T500 -83T497 -472T488 -634T480 -473T476
-83Q476 55 477 172Q475 164 472 157Q467 142 459 127Q450 111 439 96Q425 78 410 65Q393 50 374 39Q354 28 331 20Q307 13 282 10Q255 7 229 11Q178 18 134 47T63 120T31 217Q30 227 30 236Q29 279 43 319Q61 367 98 404T184 460Q209 468 235 471Q248 473 260
473ZM266 452Q252 452 238 450Q214 447 192 439Q148 423 115 389T66 311Q53 275 54 237Q54 228 55 220Q60 172 83 133T146 66T232 32Q256 28 280 30Q304 32 326 39Q347 45 366 55Q384 65 399 77Q414 89 427 105Q439 118 448 134Q463 158 471 186Q475 198 478 211Q478
249 479 290Q475 305 468 318Q459 339 447 357Q433 377 416 393Q396 412 372 425Q352 436 331 443Q308 450 283 452Q275 452 266 452Z" />
<glyph unicode="R" glyph-name="R" horiz-adv-x="422" d="M212 464Q234 465 255 460Q291 451 322 428Q349 408 367 380Q382 355 389 327Q394 305 393 284Q392 269 389 257Q387 248 385 248Q384 248 384 257Q384 273 383 283Q381 304 375 323Q367 349 352 371Q335
395 311 412Q282 431 250 438Q220 444 190 439Q157 434 130 417Q119 410 109 401Q90 384 77 363Q65 342 59 319Q54 299 52 272Q52 259 52 226Q54 128 52 62Q51 -1 47 -1Q44 -1 40 62Q37 106 31 225Q30 255 30 273Q31 302 36 325Q43 351 57 375Q72 400 93 419Q105
429 118 437Q149 456 186 462Q199 464 212 464Z" />
<glyph unicode="S" glyph-name="S" horiz-adv-x="602" d="M252 564Q255 564 258 564Q281 562 300 553Q318 544 332 529Q342 519 349 506Q353 497 355 490Q357 484 356 484Q356 483 353 489Q348 498 344 503Q337 515 326 524Q313 537 296 544Q278 551 258 552Q234
552 214 543Q195 535 181 520Q166 504 159 483Q153 464 154 444Q156 422 166 404Q179 378 208 360Q231 345 266 335Q282 330 330 320Q371 311 396 302Q436 287 470 259Q505 231 529 193Q553 157 564 114Q575 71 571 26Q570 14 568 2Q562 -36 545 -71Q529 -105 504
-133Q475 -166 436 -189Q398 -211 356 -220Q312 -229 267 -223Q224 -218 185 -200Q144 -181 111 -149Q81 -119 61 -82Q39 -41 33 6Q27 46 33 86Q39 121 55 155Q66 179 83 200Q94 215 105 225Q113 233 114 232Q114 232 107 223Q96 208 88 196Q74 174 64 150Q51 118
47 84Q42 46 48 8Q56 -36 77 -73Q96 -107 125 -134Q156 -164 194 -181Q230 -197 269 -201Q311 -206 351 -197Q389 -189 424 -169Q460 -148 487 -117Q509 -91 524 -60Q539 -29 545 6Q546 17 547 28Q550 68 540 108Q530 147 509 181Q488 215 456 241Q424 267 388
281Q366 290 326 299Q277 310 260 315Q224 326 197 343Q165 364 150 395Q138 417 137 443Q135 467 144 489Q152 512 170 531Q187 547 208 556Q229 564 252 564Z" />
<glyph unicode="T" glyph-name="T" horiz-adv-x="400" d="M150 1125T157 1125T168 790Q179 790 200 790Q271 789 320 785T370 776T320 768T200 766Q185 766 168 767Q169 667 169 563Q169 330 166 165T157 0T149 165T145 563Q145 661 146 767Q30 772 30 780T146
790Q150 1125 157 1125Z" />
<glyph unicode="U" glyph-name="U" horiz-adv-x="529" d="M487 -7Q478 -7 476 160Q474 154 470 146Q460 122 445 101Q427 76 403 58Q380 39 352 27Q323 15 291 10Q261 7 231 11Q199 15 170 27Q161 31 154 35Q130 47 110 65Q90 82 74 103Q56 129 44 159Q34 187
31 217Q28 468 35 468T52 219Q55 192 65 167Q76 140 93 117Q122 79 165 56Q173 52 179 49Q205 38 234 34Q261 30 288 33Q317 37 344 48Q369 58 391 74Q413 90 430 112Q446 131 457 153Q466 172 473 194Q474 198 475 204Q475 219 475 230Q475 329 478 398T487 468T495
399T499 231T496 63T487 -7Z" />
<glyph unicode="V" glyph-name="V" horiz-adv-x="552" d="M522 464Q525 462 508 426Q492 388 461 326Q432 265 388 179Q353 110 296 0Q295 1 294 3T292 5Q226 113 187 179Q136 263 102 322Q66 384 47 419Q28 455 30 456T54 424T112 330Q148 270 194 190Q229 129
292 17Q293 16 294 14T295 11Q346 119 380 189Q419 271 451 333Q481 394 501 430Q519 462 522 464Z" />
<glyph unicode="W" glyph-name="W" horiz-adv-x="881" d="M28 469T30 470T53 437T108 341Q141 283 186 199Q220 134 278 22Q279 22 280 20T281 17Q340 131 371 192Q414 274 447 334Q479 394 500 429Q520 463 522 462T507 424Q489 388 457 326Q457 325 456 323T453
319Q457 314 462 306Q476 282 498 241Q521 199 549 143Q575 91 611 19Q643 82 646 88Q692 178 722 236Q759 306 786 356Q814 407 832 436Q849 465 851 464T839 432Q825 401 797 348Q770 297 731 226Q698 164 649 77Q646 71 611 8Q571 79 542 133Q510 192 488 234Q466
277 455 302Q453 308 450 313Q419 254 379 182Q346 122 281 6Q281 7 280 8T278 11Q212 127 178 188Q131 271 98 333Q64 396 46 432Q28 469 30 470Z" />
<glyph unicode="X" glyph-name="X" horiz-adv-x="677" d="M30 477Q36 479 126 414T340 253Q465 349 554 414T647 475T567 402T360 237Q483 142 566 73T647 0T555 61T340 222Q214 125 124 60T30 -3T111 71T320 237Q196 334 112 403T30 477Z" />
<glyph unicode="Y" glyph-name="Y" horiz-adv-x="535" d="M498 -635T493 -635T485 -474T481 -84Q481 62 483 181Q478 161 470 143Q460 119 445 97Q427 73 403 54Q380 36 352 24Q323 11 291 7Q261 3 231 7Q199 11 170 24Q162 27 154 31Q130 44 110 61Q90 79 74
100Q56 125 44 156Q34 184 31 214Q28 464 35 464T52 215Q55 188 65 163Q76 136 93 114Q122 75 165 52Q172 49 179 46Q205 35 234 31Q261 27 288 30Q317 33 344 44Q369 54 391 70Q413 86 430 108Q445 127 457 149Q466 169 473 190Q477 206 480 223Q480 227 482 244Q483
250 484 251Q487 466 493 466Q498 466 501 305T505 -84T502 -473Z" />
<glyph unicode="Z" glyph-name="Z" horiz-adv-x="677" d="M646 492Q647 492 647 492Q648 491 637 480Q637 479 635 479Q574 420 346 244Q218 145 126 78T30 15T115 91T331 263Q532 418 618 476Q544 468 334 468Q208 468 119 471T30 480T119 488T334 492Q574 492
629 483Q643 492 646 492ZM312 29Q312 29 343 29Q469 29 558 26T647 17T558 9T344 5T129 8T40 17Q40 28 312 29Z" />
<glyph unicode="a" glyph-name="a" horiz-adv-x="734" d="M264 490Q278 490 291 488Q335 482 377 460Q413 441 446 411Q477 383 507 344Q527 318 554 278Q619 181 669 91Q686 60 697 38Q706 19 705 19T692 35Q689 39 660 86Q597 187 539 268Q511 308 491 332Q461
369 432 395Q400 423 367 440Q327 460 288 465T210 459Q170 448 138 423Q113 404 94 378Q65 337 57 289Q50 249 58 208Q66 168 87 134Q108 99 142 73Q173 48 211 35Q236 27 263 24Q288 21 313 24Q341 27 366 35Q391 43 412 56Q436 70 457 90Q474 107 489 127Q501
145 511 166Q518 181 524 197Q526 204 530 217Q532 224 532 224Q533 224 533 217Q532 208 529 196Q526 179 519 163Q511 141 498 121Q484 99 467 80Q446 58 420 42Q398 28 372 19Q345 9 315 5Q288 2 261 4Q232 7 204 16Q163 29 128 55Q92 84 67 122Q44 160 35 203Q26
248 33 293Q42 347 74 392Q95 421 123 442Q159 470 204 482Q234 490 264 490Z" />
<glyph unicode="b" glyph-name="b" horiz-adv-x="529" d="M263 4Q255 4 245 5Q218 8 194 16Q170 24 149 36Q124 51 103 73Q85 91 72 113Q60 133 52 154Q52 156 50 161Q47 9 42 9Q37 9 34 170T30 560T33 949T42 1110T50 949T54 560Q54 422 53 304Q55 311 57 319Q63
335 71 349Q80 366 91 381Q104 398 120 412Q136 426 156 437Q176 449 198 456Q222 464 248 467Q274 469 301 466Q352 459 396 430T466 356T499 259Q500 250 500 241Q501 197 487 158Q469 109 432 72T346 17Q321 8 295 5Q279 3 263 4ZM258 24Q275 24 292 26Q316
29 338 38Q382 54 415 88T464 166Q477 201 476 240Q476 249 475 257Q470 304 447 344T383 410T298 445Q274 448 249 446Q226 444 204 438Q183 432 164 421Q146 412 131 399Q116 387 103 372Q91 358 82 343Q67 319 59 291Q55 279 52 266Q51 217 51 187Q56 172 62
158Q70 138 83 120Q97 100 114 84Q134 64 158 51Q177 40 199 34Q222 27 247 25Q253 24 258 24Z" />
<glyph unicode="c" glyph-name="c" horiz-adv-x="545" d="M478 405T478 405T472 408Q471 409 467 413T460 420Q443 435 425 446Q398 463 368 473Q345 481 320 484Q292 488 265 485Q240 482 216 474Q190 465 167 451Q121 423 93 380T56 284Q51 247 57 211Q60 196
64 182Q79 133 115 93Q133 74 155 59Q176 44 199 34Q223 25 249 20Q273 16 298 17Q321 18 343 24Q364 29 384 37Q403 46 420 58Q436 68 450 81Q472 102 489 127Q499 141 508 161Q515 173 515 173Q517 172 513 159Q508 141 497 122Q482 95 459 71Q445 57 429 45Q411
31 391 21Q370 11 348 5Q324 -1 299 -3Q272 -4 245 -1Q217 3 191 14Q165 24 142 40Q118 56 98 77Q58 120 41 175Q36 191 33 207Q27 247 33 288Q37 317 48 343Q58 370 74 393Q106 440 156 470Q182 484 210 493Q236 501 263 503Q293 506 323 501Q349 496 373 487Q405
474 431 455Q450 440 464 424Q471 416 475 410Q478 405 478 405Z" />
<glyph unicode="d" glyph-name="d" horiz-adv-x="529" d="M482 1178T487 1178T496 983T500 555Q500 327 497 166T488 5Q483 5 480 156Q478 152 478 150Q470 128 458 108Q445 87 427 68Q406 46 381 31Q360 19 336 11Q311 3 285 0Q260 -2 235 0Q209 3 184 12Q135
30 98 67T43 153Q29 193 30 236Q30 245 31 254Q36 307 63 351T134 425T229 461Q255 465 282 462Q307 459 331 451Q354 444 374 432Q393 421 410 407Q426 393 439 376Q451 361 459 345Q467 330 472 315Q475 308 477 300Q476 416 476 555Q476 793 479 985ZM263 442Q247
442 232 440Q186 433 147 406T84 340T55 252Q54 244 54 235Q53 196 66 161Q81 118 114 84T192 33Q214 25 238 21Q260 18 283 20Q307 22 331 29Q353 36 372 46Q396 59 416 79Q433 95 447 115Q459 133 468 153Q474 167 479 182Q478 223 478 261Q475 273 471 286Q463
314 448 338Q439 353 427 367Q414 382 399 395Q384 407 366 417Q346 427 326 433Q303 440 280 442Q272 442 263 442Z" />
<glyph unicode="e" glyph-name="e" horiz-adv-x="544" d="M279 496Q326 496 368 480Q425 458 466 410Q485 384 497 355Q509 327 515 297Q315 297 202 300Q84 304 84 307T200 310Q315 310 505 305Q498 329 484 352Q469 376 449 395Q411 439 360 458T251 471T149
432Q146 430 145 429Q103 398 78 349Q52 298 53 243Q54 215 61 188Q69 162 82 137Q96 112 115 92Q134 71 156 57Q179 42 204 33Q228 25 254 22Q281 18 308 21Q334 24 357 32Q384 42 408 58Q428 71 446 89Q462 105 475 123Q484 137 492 152Q495 158 501 171Q505
178 505 178Q506 177 504 170Q502 161 498 150Q492 134 482 119Q470 98 454 81Q437 61 416 46Q391 28 363 18Q338 8 310 4Q281 0 252 3Q224 6 198 15Q170 24 145 39T100 77Q78 100 63 127Q48 153 40 181Q31 212 30 242Q29 303 57 360Q84 413 131 448Q133 450 135
451Q186 487 248 494Q263 496 279 496Z" />
<glyph unicode="f" glyph-name="f" horiz-adv-x="400" d="M365 1005Q365 1005 361 1001T346 989T323 969T295 941T263 905T231 860T200 807T174 745T153 676Q175 676 200 675Q271 674 320 670T370 661T320 653T200 651Q173 652 149 653Q140 605 140 556Q140 328
137 167T129 6T120 167T116 556Q116 606 125 654Q30 658 30 665T130 675Q144 738 173 794T233 888T294 952T343 992T365 1005Z" />
<glyph unicode="g" glyph-name="g" horiz-adv-x="652" d="M291 -645Q290 -645 311 -623Q344 -590 369 -561Q413 -510 449 -453Q497 -379 530 -297Q568 -204 586 -107Q606 6 598 117Q594 184 579 240Q562 306 532 358Q498 415 451 452Q443 458 434 464Q389 494
340 504Q306 511 271 508Q237 505 205 493Q172 480 144 458Q117 437 97 409Q77 380 65 347Q54 314 52 280Q50 245 59 210Q67 176 84 147Q102 116 128 91Q154 68 184 52Q216 36 252 29Q286 23 319 26Q357 30 392 45Q423 58 448 79Q472 97 491 121Q505 139 516 159Q521
169 528 184Q532 193 532 192Q533 192 531 183Q527 170 521 156Q512 135 498 116Q480 90 456 70Q429 48 398 33Q361 16 321 11Q286 7 250 13Q211 19 176 36Q143 52 115 77Q86 103 67 137Q48 169 38 205Q29 242 30 281Q32 318 44 354Q56 391 79 422Q100 453 130
476Q161 500 196 514Q231 528 269 532Q308 535 345 528Q399 517 447 484Q457 478 466 471Q517 430 552 370Q584 315 602 246Q617 187 621 119Q628 4 606 -111Q587 -210 547 -304Q511 -387 461 -461Q423 -518 377 -568Q346 -601 315 -627Q292 -647 291 -645Z" />
<glyph unicode="h" glyph-name="h" horiz-adv-x="535" d="M37 1099T42 1099T50 938T54 549Q54 402 53 284Q57 303 65 322Q75 346 91 367Q109 392 132 410Q156 429 183 440Q213 453 244 457Q274 461 305 457Q337 453 365 441Q373 437 381 433Q405 421 426 403Q446
386 461 365Q480 339 491 309Q502 280 504 250Q508 0 501 0T483 249Q480 276 470 301Q459 328 442 351Q413 389 370 412Q363 416 356 419Q330 430 302 434Q274 438 247 434Q219 431 192 420Q166 410 145 394Q123 378 105 356Q90 337 79 315Q69 295 63 274Q58 258
56 242Q55 237 53 221Q52 214 52 213Q48 -2 42 -2Q37 -2 34 159T30 548T33 937Z" />
<glyph unicode="i" glyph-name="i" horiz-adv-x="84" d="M41 770Q41 770 42 770Q47 770 50 754T54 716T51 679T42 663T34 678T30 716Q30 767 41 770ZM37 483T42 483T50 414T54 246T51 78T42 8T34 77T30 245T33 413Z" />
<glyph unicode="j" glyph-name="j" horiz-adv-x="84" d="M41 783Q41 783 42 783Q47 783 50 767T54 729T51 692T42 676T34 691T30 729Q30 780 41 783ZM37 496T42 496T50 335T54 -54Q54 -285 51 -459T42 -634T34 -460T30 -54Q30 174 33 335Z" />
<glyph unicode="k" glyph-name="k" horiz-adv-x="560" d="M37 1106T42 1106T50 945T54 556Q54 409 53 291Q57 311 65 329Q75 353 91 374Q109 399 132 418Q154 434 178 446Q235 491 320 551Q405 610 466 649T531 685T476 636T334 531Q283 495 236 464Q240 464 244
465Q274 469 305 465Q337 461 365 448Q373 445 381 441Q405 428 426 410Q446 393 461 372Q480 346 491 316Q502 288 504 258Q508 8 501 8T483 257Q480 283 470 309Q459 335 442 358Q413 397 370 419Q363 423 356 426Q330 437 302 441Q274 445 247 442Q219 439 192
428Q166 417 145 402Q123 386 105 364Q90 345 79 323Q69 303 63 282Q58 266 56 249Q55 245 53 228Q52 222 52 221Q48 6 42 6Q37 6 34 167T30 556T33 945Z" />
<glyph unicode="l" glyph-name="l" horiz-adv-x="84" d="M37 1215T42 1215T50 1037T54 608T51 178T42 0T34 178T30 607T33 1037Z" />
<glyph unicode="m" glyph-name="m" horiz-adv-x="975" d="M42 485Q51 485 53 318Q56 324 59 331Q69 356 84 377Q103 401 126 420Q150 438 177 450Q207 463 238 467Q268 471 299 467Q330 463 359 450Q368 447 375 443Q399 430 419 413Q439 395 455 374Q474 349
485 318Q489 307 492 294Q497 315 505 335Q516 359 531 380Q549 405 573 424Q596 442 623 454Q653 466 685 471Q715 475 745 470Q777 466 806 454Q814 450 822 446Q846 434 866 416Q886 399 901 378Q920 352 931 322Q942 293 945 264Q948 13 941 13T924 262Q920
289 910 314Q900 341 883 364Q854 403 811 425Q802 429 796 432Q771 443 742 447Q715 451 688 448Q659 444 632 434Q607 423 585 407Q563 391 545 369Q530 351 519 328Q509 309 503 287Q500 276 498 264Q498 261 498 260Q502 10 495 10T477 259Q474 286 464 311Q453
338 436 360Q407 399 364 422Q357 425 350 428Q324 439 295 443Q268 447 241 444Q212 441 185 430Q160 420 139 404Q116 388 99 366Q84 347 73 325Q63 305 57 284Q55 280 54 273Q54 260 54 247Q54 149 51 80T42 10T34 79T30 247T33 415T42 485Z" />
<glyph unicode="n" glyph-name="n" horiz-adv-x="529" d="M42 475Q51 475 53 308Q56 314 59 322Q69 346 84 367Q103 392 126 410Q150 429 177 440Q207 453 238 457Q268 461 299 457Q330 453 359 441Q368 437 375 433Q399 421 419 403Q439 386 455 365Q474 339
485 309Q495 281 498 250Q502 0 495 0T477 249Q474 276 464 301Q453 328 436 351Q407 389 364 412Q357 416 350 419Q324 430 295 434Q268 438 241 435Q212 431 185 420Q160 410 139 394Q116 378 99 356Q84 337 73 315Q63 295 57 274Q55 270 54 264Q54 250 54 238Q54
139 51 70T42 0T34 69T30 237T33 405T42 475Z" />
<glyph unicode="o" glyph-name="o" horiz-adv-x="548" d="M270 491Q284 491 297 490Q326 487 353 477Q406 459 446 418T505 324Q519 284 518 241Q518 227 516 214Q509 157 479 110T399 33T294 -2Q267 -4 240 0Q214 3 190 12Q167 21 146 33Q127 45 111 59T81 92Q69
108 60 125Q53 139 47 156Q42 169 39 183Q35 203 35 221Q34 234 36 234Q37 234 39 221Q43 200 48 185Q57 156 72 131Q81 115 93 101Q106 85 121 72T155 48Q175 37 196 30Q219 22 242 20Q268 17 292 19Q343 24 387 52T459 122Q486 165 492 217Q494 229 494 242Q495
281 482 316Q466 364 430 401T346 456Q321 465 295 469Q271 471 246 469Q219 467 194 459Q170 451 149 439Q124 424 103 403Q86 386 72 364Q59 345 50 324Q44 309 39 291Q37 286 33 270Q32 263 31 263T30 271Q30 281 32 293Q35 310 41 327Q48 350 61 371Q75 394
93 414Q114 437 140 453Q162 467 188 476Q215 486 244 489Q257 491 270 491Z" />
<glyph unicode="p" glyph-name="p" horiz-adv-x="529" d="M263 469Q279 469 295 468Q321 465 346 456Q394 438 431 401T487 315Q501 276 500 232Q500 223 499 214Q493 161 467 117T396 44T301 7Q274 4 248 6Q222 9 198 17Q176 24 156 36Q136 47 120 61Q104 75
91 92Q80 107 71 124Q63 138 57 154Q55 162 53 169Q54 51 54 -87Q54 -315 51 -476T42 -637T34 -476T30 -87T33 302T42 464Q47 464 50 312Q52 317 52 318Q60 340 72 360Q85 382 103 400Q124 422 149 437Q170 449 194 457Q219 465 245 468Q255 469 263 469ZM258 449Q253
449 247 448Q222 446 199 439Q177 433 158 422Q134 409 114 389Q97 373 83 353Q70 335 62 315Q56 301 51 286Q51 256 52 207Q55 194 59 182Q67 154 82 130Q91 115 103 101Q116 86 131 74T164 52Q183 41 204 35Q226 28 249 27Q274 25 298 28Q343 35 383 62T446 129T475
216Q476 224 476 233Q477 272 464 307Q449 351 416 385T338 435Q316 444 292 447Q275 449 258 449Z" />
<glyph unicode="q" glyph-name="q" horiz-adv-x="529" d="M260 473Q273 473 285 472Q311 469 336 461Q360 453 381 440Q406 425 427 404Q445 385 458 364Q470 344 478 322Q478 320 480 316Q483 467 488 467Q493 467 496 306T500 -83T497 -472T488 -634T480 -473T476
-83Q476 55 477 172Q475 164 472 157Q467 142 459 127Q450 111 439 96Q425 78 410 65Q393 50 374 39Q354 28 331 20Q307 13 282 10Q255 7 229 11Q178 18 134 47T63 120T31 217Q30 227 30 236Q29 279 43 319Q61 367 98 404T184 460Q209 468 235 471Q248 473 260
473ZM266 452Q252 452 238 450Q214 447 192 439Q148 423 115 389T66 311Q53 275 54 237Q54 228 55 220Q60 172 83 133T146 66T232 32Q256 28 280 30Q304 32 326 39Q347 45 366 55Q384 65 399 77Q414 89 427 105Q439 118 448 134Q463 158 471 186Q475 198 478 211Q478
249 479 290Q475 305 468 318Q459 339 447 357Q433 377 416 393Q396 412 372 425Q352 436 331 443Q308 450 283 452Q275 452 266 452Z" />
<glyph unicode="r" glyph-name="r" horiz-adv-x="422" d="M212 464Q234 465 255 460Q291 451 322 428Q349 408 367 380Q382 355 389 327Q394 305 393 284Q392 269 389 257Q387 248 385 248Q384 248 384 257Q384 273 383 283Q381 304 375 323Q367 349 352 371Q335
395 311 412Q282 431 250 438Q220 444 190 439Q157 434 130 417Q119 410 109 401Q90 384 77 363Q65 342 59 319Q54 299 52 272Q52 259 52 226Q54 128 52 62Q51 -1 47 -1Q44 -1 40 62Q37 106 31 225Q30 255 30 273Q31 302 36 325Q43 351 57 375Q72 400 93 419Q105
429 118 437Q149 456 186 462Q199 464 212 464Z" />
<glyph unicode="s" glyph-name="s" horiz-adv-x="602" d="M252 564Q255 564 258 564Q281 562 300 553Q318 544 332 529Q342 519 349 506Q353 497 355 490Q357 484 356 484Q356 483 353 489Q348 498 344 503Q337 515 326 524Q313 537 296 544Q278 551 258 552Q234
552 214 543Q195 535 181 520Q166 504 159 483Q153 464 154 444Q156 422 166 404Q179 378 208 360Q231 345 266 335Q282 330 330 320Q371 311 396 302Q436 287 470 259Q505 231 529 193Q553 157 564 114Q575 71 571 26Q570 14 568 2Q562 -36 545 -71Q529 -105 504
-133Q475 -166 436 -189Q398 -211 356 -220Q312 -229 267 -223Q224 -218 185 -200Q144 -181 111 -149Q81 -119 61 -82Q39 -41 33 6Q27 46 33 86Q39 121 55 155Q66 179 83 200Q94 215 105 225Q113 233 114 232Q114 232 107 223Q96 208 88 196Q74 174 64 150Q51 118
47 84Q42 46 48 8Q56 -36 77 -73Q96 -107 125 -134Q156 -164 194 -181Q230 -197 269 -201Q311 -206 351 -197Q389 -189 424 -169Q460 -148 487 -117Q509 -91 524 -60Q539 -29 545 6Q546 17 547 28Q550 68 540 108Q530 147 509 181Q488 215 456 241Q424 267 388
281Q366 290 326 299Q277 310 260 315Q224 326 197 343Q165 364 150 395Q138 417 137 443Q135 467 144 489Q152 512 170 531Q187 547 208 556Q229 564 252 564Z" />
<glyph unicode="t" glyph-name="t" horiz-adv-x="400" d="M150 1125T157 1125T168 790Q179 790 200 790Q271 789 320 785T370 776T320 768T200 766Q185 766 168 767Q169 667 169 563Q169 330 166 165T157 0T149 165T145 563Q145 661 146 767Q30 772 30 780T146
790Q150 1125 157 1125Z" />
<glyph unicode="u" glyph-name="u" horiz-adv-x="529" d="M487 -7Q478 -7 476 160Q474 154 470 146Q460 122 445 101Q427 76 403 58Q380 39 352 27Q323 15 291 10Q261 7 231 11Q199 15 170 27Q161 31 154 35Q130 47 110 65Q90 82 74 103Q56 129 44 159Q34 187
31 217Q28 468 35 468T52 219Q55 192 65 167Q76 140 93 117Q122 79 165 56Q173 52 179 49Q205 38 234 34Q261 30 288 33Q317 37 344 48Q369 58 391 74Q413 90 430 112Q446 131 457 153Q466 172 473 194Q474 198 475 204Q475 219 475 230Q475 329 478 398T487 468T495
399T499 231T496 63T487 -7Z" />
<glyph unicode="v" glyph-name="v" horiz-adv-x="552" d="M522 464Q525 462 508 426Q492 388 461 326Q432 265 388 179Q353 110 296 0Q295 1 294 3T292 5Q226 113 187 179Q136 263 102 322Q66 384 47 419Q28 455 30 456T54 424T112 330Q148 270 194 190Q229 129
292 17Q293 16 294 14T295 11Q346 119 380 189Q419 271 451 333Q481 394 501 430Q519 462 522 464Z" />
<glyph unicode="w" glyph-name="w" horiz-adv-x="881" d="M28 469T30 470T53 437T108 341Q141 283 186 199Q220 134 278 22Q279 22 280 20T281 17Q340 131 371 192Q414 274 447 334Q479 394 500 429Q520 463 522 462T507 424Q489 388 457 326Q457 325 456 323T453
319Q457 314 462 306Q476 282 498 241Q521 199 549 143Q575 91 611 19Q643 82 646 88Q692 178 722 236Q759 306 786 356Q814 407 832 436Q849 465 851 464T839 432Q825 401 797 348Q770 297 731 226Q698 164 649 77Q646 71 611 8Q571 79 542 133Q510 192 488 234Q466
277 455 302Q453 308 450 313Q419 254 379 182Q346 122 281 6Q281 7 280 8T278 11Q212 127 178 188Q131 271 98 333Q64 396 46 432Q28 469 30 470Z" />
<glyph unicode="x" glyph-name="x" horiz-adv-x="677" d="M30 477Q36 479 126 414T340 253Q465 349 554 414T647 475T567 402T360 237Q483 142 566 73T647 0T555 61T340 222Q214 125 124 60T30 -3T111 71T320 237Q196 334 112 403T30 477Z" />
<glyph unicode="y" glyph-name="y" horiz-adv-x="535" d="M498 -635T493 -635T485 -474T481 -84Q481 62 483 181Q478 161 470 143Q460 119 445 97Q427 73 403 54Q380 36 352 24Q323 11 291 7Q261 3 231 7Q199 11 170 24Q162 27 154 31Q130 44 110 61Q90 79 74
100Q56 125 44 156Q34 184 31 214Q28 464 35 464T52 215Q55 188 65 163Q76 136 93 114Q122 75 165 52Q172 49 179 46Q205 35 234 31Q261 27 288 30Q317 33 344 44Q369 54 391 70Q413 86 430 108Q445 127 457 149Q466 169 473 190Q477 206 480 223Q480 227 482 244Q483
250 484 251Q487 466 493 466Q498 466 501 305T505 -84T502 -473Z" />
<glyph unicode="z" glyph-name="z" horiz-adv-x="677" d="M646 492Q647 492 647 492Q648 491 637 480Q637 479 635 479Q574 420 346 244Q218 145 126 78T30 15T115 91T331 263Q532 418 618 476Q544 468 334 468Q208 468 119 471T30 480T119 488T334 492Q574 492
629 483Q643 492 646 492ZM312 29Q312 29 343 29Q469 29 558 26T647 17T558 9T344 5T129 8T40 17Q40 28 312 29Z" />
</font>
</defs>
</svg>
